<?xml version="1.0" ?><svg data-name="01-Virus" id="_01-Virus" viewBox="0 0 64 64" xmlns="http://www.w3.org/2000/svg"><title/><path d="M44,29a3,3,0,1,1-.767-2" style="fill:none;stroke:#000;stroke-linejoin:round;stroke-width:3px"/><circle cx="37" cy="41" r="4" style="fill:none;stroke:#000;stroke-linejoin:round;stroke-width:3px"/><circle cx="30" cy="23" r="2" style="fill:none;stroke:#000;stroke-linejoin:round;stroke-width:3px"/><path d="M21.535,33A4,4,0,1,1,21,35" style="fill:none;stroke:#000;stroke-linejoin:round;stroke-width:3px"/><path d="M48,50.337a17.719,17.719,0,0,1,2.175,1.816L52,53.977,52,54a3,3,0,1,0,3-3l-.023,0-1.824-1.823a29.121,29.121,0,0,1-4.867-7.44,18.861,18.861,0,0,0,2.393-6.334A25.741,25.741,0,0,1,58,34h3a2,2,0,0,0,0-4H58A25.741,25.741,0,0,1,50.679,28.6a18.861,18.861,0,0,0-2.393-6.334,29.121,29.121,0,0,1,4.867-7.44L54.977,13,55,13a3,3,0,1,0-3-3l0,.023-1.823,1.824a28.447,28.447,0,0,1-7.135,4.72,18.885,18.885,0,0,0-7.639-3.246A25.741,25.741,0,0,1,34,6V3a2,2,0,0,0-4,0V6A25.741,25.741,0,0,1,28.6,13.321a18.885,18.885,0,0,0-7.639,3.246A35.1,35.1,0,0,1,16,13.662" style="fill:none;stroke:#000;stroke-linejoin:round;stroke-width:3px"/><path d="M14,12.022c-.061-.058-.12-.117-.179-.175L12,10.023,12,10a3,3,0,1,0-3,3l.023,0,1.824,1.823a29.121,29.121,0,0,1,4.867,7.44A18.861,18.861,0,0,0,13.321,28.6,25.741,25.741,0,0,1,6,30H3a2,2,0,0,0,0,4H6a25.741,25.741,0,0,1,7.321,1.405,18.861,18.861,0,0,0,2.393,6.334,29.121,29.121,0,0,1-4.867,7.44L9.023,51,9,51a3,3,0,1,0,3,3l0-.023,1.823-1.824a28.447,28.447,0,0,1,7.135-4.72A18.885,18.885,0,0,0,28.6,50.679,25.741,25.741,0,0,1,30,58v3a2,2,0,0,0,4,0V58a25.741,25.741,0,0,1,1.405-7.321,18.885,18.885,0,0,0,7.639-3.246c.744.361,1.813.909,2.961,1.6" style="fill:none;stroke:#000;stroke-linejoin:round;stroke-width:3px"/></svg>